<svg width="206" height="24" viewBox="0 0 206 24" fill="none" xmlns="http://www.w3.org/2000/svg">
<path fill-rule="evenodd" clip-rule="evenodd" d="M15 4V7H11V4H4V16H11V13H15V16V20H11H4H0V16V4V0H4H11H15V4ZM37 0V16V17V20H25H21V16V4V0H25H33H36H37ZM33 16H25V4H33V16ZM108 8V4V0H104H97H93V4V8V12V20H97V12H104H108V8ZM97 8H104V4H97V8ZM156 4H160V10H154.5L156 4ZM153.5 14L152 20H148L152 4H150V0H153H157H160H164V4V10V14V20H160V14H153.5ZM202 7.27274L195 20H191V0H195V12.7273L202 0H206V20H202V7.27274ZM185 8V0H181V8H174V0H170V8V12V20H174V12H181V20H185V12V8ZM87 4H71V8H87V12H71V16H87V20H71H67V16V12V8V4V0H71H87V4ZM45 4H47L44 16H43H41V24H45V20H47H55H59V24H63V20V16H59V4V0H55H52H48H45V4ZM55 4H51L48 16H55V4ZM138 8V4H142V0H138H134V4V8H130V0H126V8H122V4V0H118H114V4H118V8H117H116H113V20H117V12H118H122H126V20H130V12H134H138H139V20H143V8H139H138Z" fill="#FB0505"/>
</svg>
