<?xml version="1.0" encoding="utf-8"?>
<!-- Generator: Adobe Illustrator 24.0.3, SVG Export Plug-In . SVG Version: 6.00 Build 0)  -->
<svg version="1.1" id="Слой_1" xmlns="http://www.w3.org/2000/svg" xmlns:xlink="http://www.w3.org/1999/xlink" x="0px" y="0px"
	 viewBox="0 0 964.9 922.1" style="enable-background:new 0 0 964.9 922.1;" xml:space="preserve">
<style type="text/css">
	.st0{fill-rule:evenodd;clip-rule:evenodd;fill:#DEDFE0;}
	.st1{fill:#DEDFE0;}
</style>
<title>Ресурс 1</title>
<path class="st0" d="M289.2,490.5c-17,0-33.6,5-47.7,14.5v-13h-38.3v257.2h38.3V648.1c39.5,26.4,92.9,15.7,119.3-23.8
	c26.4-39.5,15.7-92.9-23.8-119.3C322.8,495.5,306.2,490.5,289.2,490.5L289.2,490.5z M289.2,624.2c-26.3,0-47.7-21.3-47.7-47.7
	c0-26.3,21.3-47.7,47.7-47.7c26.3,0,47.7,21.3,47.7,47.7c0,0,0,0,0,0C336.9,602.8,315.5,624.2,289.2,624.2L289.2,624.2z"/>
<path class="st0" d="M492.4,490.5c-47.5,0-86,38.5-86,86s38.5,86,86,86c47.5,0,86-38.5,86-86C578.3,529,539.8,490.5,492.4,490.5
	L492.4,490.5z M492.4,624.2c-26.3,0-47.7-21.3-47.7-47.6s21.3-47.7,47.6-47.7c26.3,0,47.7,21.3,47.7,47.6c0,0,0,0,0,0
	C540,602.8,518.7,624.2,492.4,624.2L492.4,624.2z"/>
<path class="st0" d="M492.4,0c-47.5,0-86,38.5-86,86s38.5,86,86,86s86-38.5,86-86c0,0,0,0,0,0C578.3,38.5,539.8,0,492.4,0z
	 M492.4,133.7c-26.3,0-47.7-21.3-47.7-47.6s21.3-47.7,47.6-47.7c26.3,0,47.7,21.3,47.7,47.6c0,0,0,0,0,0
	C540,112.3,518.7,133.7,492.4,133.7z"/>
<path class="st0" d="M691.8,0c-47.5,0-86,38.5-86,86s38.5,86,86,86s86-38.5,86-86S739.3,0,691.8,0z M691.8,133.7
	c-26.3,0-47.7-21.3-47.7-47.7c0-26.3,21.3-47.7,47.7-47.7c26.3,0,47.7,21.3,47.7,47.7c0,0,0,0,0,0
	C739.5,112.3,718.1,133.7,691.8,133.7z"/>
<rect x="338.1" y="0" class="st1" width="38.3" height="172"/>
<polygon class="st0" points="723.8,490.5 723.8,557.4 647.5,557.4 647.5,490.5 609.2,490.5 609.2,662.5 647.5,662.5 647.5,595.7 
	723.8,595.7 723.8,662.5 762.1,662.5 762.1,490.5 "/>
<path class="st1" d="M909.6,343.9c-29.8-22.9-75-23.6-125.6-2.5c-16-27.9-37.4-54.5-71.4-64.9c-29.7-9-63.6-4.5-103.3,14
	c-16.8-43.5-45.7-73.6-80-82c-20.1-5-41.4-2.6-63.2,7.1c-16.9,7.5-34.3,19.5-51.8,35.9c-21.6-24.3-54-38.5-85.7-36.1
	c-22.6,1.7-62.2,13.5-87.4,70c-24.7-6.7-54.2-8.3-78.8,8.5c-13.3,9.1-28.4,26-35.2,57.6c-27.9,5.2-51.5,23.8-63,49.8h-64v261.3h38.3
	v-14.4c39.5,26.3,92.9,15.7,119.3-23.8s15.7-92.9-23.8-119.3c-28.9-19.3-66.5-19.3-95.4,0v-65.4h56.8c-0.1-1.2-0.1-2.4-0.1-3.6
	c0-26.3,21.3-47.7,47.7-47.7h19.2c0-39.4,12-55.8,22-62.7c17.2-11.8,42.9-5.6,61.4,1.6l18.8,7.3l6.5-19.1
	c12.8-37.8,34.4-59.8,60.9-61.8c24.6-1.9,51.2,13.5,63.2,36.5l12.6,24.3l18.6-20.1c24.6-26.7,60.9-56.8,94.2-48.5
	c20.1,5,46.2,27.8,59.3,77.1l6.3,23.9l21.6-12c38.5-21.5,70.2-28.7,94-21.5c15.8,4.8,33.7,15.6,57.1,61.7l8.7,17l17.1-8.5
	c43.2-21.6,81.3-25,102-9.1c12.8,9.8,17.8,27.1,13.7,47.4l37.7,7.7C944.7,394.7,934.2,362.8,909.6,343.9z M86.1,528.8
	c26.3,0,47.7,21.4,47.7,47.7s-21.4,47.7-47.7,47.7s-47.7-21.4-47.7-47.7c0,0,0,0,0,0C38.4,550.2,59.7,528.8,86.1,528.8z"/>
<path class="st1" d="M926.6,492v14.4c-39.5-26.4-92.9-15.7-119.3,23.8c-26.4,39.5-15.7,92.9,23.8,119.3c8.8,5.9,18.7,10.1,29.1,12.4
	c0,0.4,0,0.8,0,1.2c0,26.3-21.3,47.7-47.7,47.7h-19.2c0,29-11.2,52.4-31.4,65.9c-25.9,17.2-64.9,17-107-0.6l-19.5-8.2l-6.3,20.2
	c-14.3,46-39.2,74.6-71.9,82.7c-32.1,8-70.1-4.9-99.1-33.6l-14-13.9l-13.5,14.4c-31,33-70.5,50.3-102.9,45.1
	c-28.5-4.6-51.6-25.7-68.8-62.6l-9-19.3l-18.3,10.8c-23.9,14.1-57.5,28-82,14.6c-21.4-11.7-30.3-40.4-30.8-55.8l-1.2-32L90,754.5
	c-10.3,6-24.6,12-34.3,6.4c-10.8-6.2-17.2-25.9-17.2-41.3H0c0,19.9,7.7,58,36.5,74.6c16.2,9.3,33.4,8.7,48.6,4.2
	c6.4,21.7,20.1,47.3,46.1,61.5c15.5,8.5,33.2,11.7,52.7,9.6c15.4-1.7,32-6.8,49.5-15.2c27.5,47.1,62.4,62.2,88.2,66.4
	c5.9,0.9,11.9,1.4,17.9,1.4c18.5,0,37.8-4.3,56.7-12.8c17.9-8.2,34.4-19.1,49-32.2c14.6,11.8,31.1,20.9,48.9,27
	c24.4,8.3,49.4,9.7,72.4,3.9c22.3-5.5,42-17.3,58.7-35.1c13.7-14.5,25-32.8,33.8-54.4c20.7,6.7,40.7,9.8,59.7,9.4
	c24.2-0.6,46.5-7.2,64.5-19.2c21.6-14.3,36.5-35.3,43.6-60.8c41.4-7,71.7-42.8,71.7-84.8c0-0.5,0-1,0-1.4c10-2.3,19.5-6.5,28.1-12.2
	v99.7h38.3V492H926.6z M878.9,625.6c-26.3,0-47.7-21.4-47.7-47.7s21.4-47.7,47.7-47.7s47.7,21.4,47.7,47.7S905.3,625.6,878.9,625.6
	L878.9,625.6z"/>
</svg>
