<svg width="1647" height="133" viewBox="0 0 1647 133" fill="none" xmlns="http://www.w3.org/2000/svg">
<path fill-rule="evenodd" clip-rule="evenodd" d="M63.7356 60.8002C69.4976 54.3466 73 45.8323 73 36.5C73 16.3416 56.6584 0 36.5 0C16.3416 0 0 16.3416 0 36.5C0 37.3403 0.0283928 38.1739 0.0842743 39H0V93V133H20V127.649C25.8835 131.052 32.7143 133 40 133C62.0914 133 80 115.091 80 93C80 79.7952 73.6014 68.0847 63.7356 60.8002ZM53.0908 36.5C53.0908 45.663 45.6628 53.0909 36.4999 53.0909C27.337 53.0909 19.909 45.663 19.909 36.5C19.909 27.3371 27.337 19.9091 36.4999 19.9091C45.6628 19.9091 53.0908 27.3371 53.0908 36.5ZM39.9999 113C28.9746 113 20.033 104.079 20 93.0612V92.9388C20.033 81.9211 28.9746 73 39.9999 73C51.0456 73 59.9999 81.9542 59.9999 93C59.9999 104.046 51.0456 113 39.9999 113ZM205 0H223H230H296H320V33V133H296V33H230V133H205V0ZM405 0H380V133H405V93.6025C412.464 98.014 421.171 100.546 430.47 100.546C458.157 100.546 480.601 78.1012 480.601 50.4146C480.601 22.7279 458.157 0.283447 430.47 0.283447C421.171 0.283447 412.464 2.815 405 7.22656V0ZM455.536 50.4147C455.536 64.258 444.314 75.4802 430.47 75.4802C416.627 75.4802 405.405 64.258 405.405 50.4147C405.405 36.5714 416.627 25.3491 430.47 25.3491C444.314 25.3491 455.536 36.5714 455.536 50.4147ZM690 0H707H714H766V33H714V133H690V0ZM1527 0H1553H1604V25H1553V49H1587V83H1553V109H1604V133H1553H1527V109V25V0ZM984.681 0H994H1010H1019.68L1065 133H1039.32L1031.14 109H973.382L965.319 133H940L984.681 0ZM984.468 76H1019.9L1002.06 23.6445L984.468 76ZM1314 0H1339V0.00268555L1339 0L1389.88 74.8217L1440 0.0557861V0H1464V133H1440V50.1586L1407 99.9957H1407L1407 100H1372.99L1339 51.1321V133H1314V0ZM1133 0L1180 88.3195L1226.99 0H1227H1250.99H1251V133H1227V45.0884L1193 108.984H1190.99H1169H1166.99L1133 45.1031V133H1109V0H1133ZM648.534 66.5982C648.534 103.271 618.805 133 582.132 133C545.46 133 515.73 103.271 515.73 66.5982C515.73 29.9254 545.46 0.196289 582.132 0.196289C618.805 0.196289 648.534 29.9254 648.534 66.5982ZM615.333 66.598C615.333 84.9344 600.468 99.799 582.132 99.799C563.795 99.799 548.931 84.9344 548.931 66.598C548.931 48.2617 563.795 33.3971 582.132 33.3971C600.468 33.3971 615.333 48.2617 615.333 66.598ZM814 0H839V7.23785C846.573 2.64453 855.459 0 864.962 0C892.649 0 915.093 22.4445 915.093 50.1311C915.093 77.8177 892.649 100.262 864.962 100.262C855.459 100.262 846.573 97.6177 839 93.0244V133H814V0ZM864.962 75.1968C878.806 75.1968 890.028 63.9745 890.028 50.1312C890.028 36.2879 878.806 25.0657 864.962 25.0657C851.119 25.0657 839.897 36.2879 839.897 50.1312C839.897 63.9745 851.119 75.1968 864.962 75.1968ZM1635 78C1641.63 78 1647 72.6274 1647 66C1647 59.3726 1641.63 54 1635 54C1628.37 54 1623 59.3726 1623 66C1623 72.6274 1628.37 78 1635 78ZM1635 133C1641.63 133 1647 127.627 1647 121C1647 114.373 1641.63 109 1635 109C1628.37 109 1623 114.373 1623 121C1623 127.627 1628.37 133 1635 133Z" fill="#FB0505"/>
</svg>
